<svg xmlns="http://www.w3.org/2000/svg" width="50" height="50" fill="none" viewBox="0 0 50 50"><rect width="50" height="50" x="0" fill="#fff" rx="25"/><rect width="50" height="50" x="0" fill="#FFC35A" rx="25"/><rect width="49" height="49" x=".5" y=".5" stroke="#000" stroke-opacity=".1" rx="24.5"/><path fill="#4D3815" fill-rule="evenodd" d="M14.5663 20.7031H35.4339C37.8694 20.7031 39.8438 22.6775 39.8438 25.1131C39.8438 27.5486 37.8694 29.523 35.4339 29.523H14.5663C12.1307 29.523 10.1563 27.5486 10.1563 25.1131C10.1563 22.6775 12.1307 20.7031 14.5663 20.7031ZM14.5663 21.875C12.7779 21.875 11.3282 23.3247 11.3282 25.1131C11.3282 26.9014 12.7779 28.3512 14.5663 28.3512H35.4339C37.2222 28.3512 38.6719 26.9014 38.6719 25.1131C38.6719 23.3247 37.2222 21.875 35.4339 21.875H14.5663Z" clip-rule="evenodd"/><rect width="24.137" height="3.598" x="12.891" y="23.314" fill="#4D3815" fill-opacity=".3" rx="1.799"/><path fill="#4D3815" d="M12.8907 25.1131C12.8907 24.1196 13.6961 23.3142 14.6896 23.3142H29.0811V26.9121H14.6896C13.6961 26.9121 12.8907 26.1067 12.8907 25.1131Z"/></svg>