<svg xmlns="http://www.w3.org/2000/svg" width="200" height="200" fill="none" viewBox="0 0 200 200"><rect width="200" height="200" fill="#FF5B66" transform="matrix(-1 0 0 1 200 0)"/><path fill="#FFFAF2" d="M133.086 48.9862C133.086 46.7771 131.295 45 129.086 45H56.8153C54.6062 45 52.8153 46.7909 52.8153 49V151C52.8153 153.209 54.6062 155 56.8153 155H133.086C133.086 155 139.518 155 141.5 155C135 154.5 133.086 150.541 133.086 145.586C133.086 141.239 133.086 67.1329 133.086 48.9862Z"/><path fill="#FFBABA" d="M148 117H133V147.5C133 151.642 136.358 155 140.5 155V155C144.642 155 148 151.642 148 147.5V117Z"/><rect width="59.459" height="25.766" fill="#FF5B66" rx="3" transform="matrix(-1 0 0 1 122.68 55.9009)"/><rect width="48.559" height="8" x="63" y="97.613" fill="#FF5B66" rx="4"/><rect width="35.676" height="8" x="63" y="112.477" fill="#FF5B66" rx="4"/></svg>