<svg xmlns="http://www.w3.org/2000/svg" width="200" height="200" fill="none" viewBox="0 0 200 200"><path fill="#814AE6" d="M0 200L4.71939e-06 0L200 4.71939e-06L200 200L0 200Z"/><path fill="#EEF9FF" d="M55.8018 46.0001C55.8018 45.4478 56.2495 45.0001 56.8018 45.0001H112.794C113.059 45.0001 113.312 45.1048 113.5 45.2912L143.512 75.1528C143.701 75.3405 143.807 75.5956 143.807 75.8617V154C143.807 154.552 143.359 155 142.807 155H56.8018C56.2495 155 55.8018 154.552 55.8018 154V46.0001Z"/><rect width="50.315" height="9.148" x="70.368" y="120.765" fill="#8249EB" rx="4.574"/><rect width="59.463" height="9.148" x="70.368" y="102.406" fill="#8249EB" rx="4.574"/><rect width="22.001" height="22" x="70.368" y="72.54" fill="#8249EB" rx="11"/><path fill="#CBC1FF" d="M113.206 75.5998H143.806L113.206 45V75.5998Z"/></svg>